<svg xmlns="http://www.w3.org/2000/svg" width="16" height="16"><g fill="none" fill-rule="evenodd"><circle cx="8" cy="8" r="8" fill="#C5C5C5" fill-rule="nonzero"/><path fill="#FFF" d="M6.665 8.47c0-.885.54-1.425 1.005-1.875.33-.33.6-.585.6-.99 0-.345-.24-.645-.765-.645-.42 0-.825.21-1.14.6L5.18 4.045c.72-.795 1.71-1.2 2.76-1.2 1.71 0 2.76.945 2.76 2.28 0 1.08-.615 1.68-1.17 2.205-.465.48-.81.84-.81 1.35 0 .24.09.465.195.6l-1.845.555c-.255-.345-.405-.795-.405-1.365zm-.045 3.36c0-.72.615-1.335 1.335-1.335.735 0 1.35.615 1.35 1.335a1.35 1.35 0 0 1-1.35 1.335c-.72 0-1.335-.6-1.335-1.335z"/></g></svg>